<?xml version="1.0" encoding="UTF-8"?>
<svg version="1.1" xmlns="http://www.w3.org/2000/svg" width="206" height="58">
<path d="M0 0 C1.3937614 1.52341363 2.78641874 3.04793309 4.1640625 4.5859375 C7.22032905 6.93991301 10.69460012 6.94678002 14.43359375 7.4453125 C18.12607268 8.24338253 19.8085658 10.00503993 22 13 C23.48728837 17.46186512 23.71130532 21.30077062 21.875 25.6875 C19.47604165 28.6462153 17.40627874 30.26472592 14 32 C12.04296875 32.03515625 12.04296875 32.03515625 10 31.875 C7.44277196 31.71486997 6.42667321 31.65678365 4.40234375 33.28515625 C3.43050812 34.38138684 2.46172022 35.48032734 1.49609375 36.58203125 C-0 38 -0 38 -3.5 39.125 C-11.21959874 38.84930004 -15.78173854 32.42467597 -20.92578125 27.2421875 C-24.00929564 23.90897232 -24.41788631 21.58055583 -24.3359375 17.0078125 C-23.76356567 13.58689247 -21.57893299 12.20283859 -19 10 C-16.9928123 7.68525935 -15.0242548 5.34159598 -13.0625 2.98828125 C-9.04475559 -0.88488524 -5.28436342 -1.72550642 0 0 Z M2.4375 11.375 C-0.38807381 14.26971455 -0.38807381 14.26971455 -1.0546875 17.98828125 C-0.71407624 22.39401391 -0.39464377 24.50416552 2.4375 28.0625 C4.73046572 30.20103609 4.73046572 30.20103609 7 30 C10.25901994 24.86669391 11.58180797 21.05667667 10.5546875 14.98828125 C9.84813168 12.45562695 8.94030105 10.78507696 7 9 C4.6621674 8.77341178 4.6621674 8.77341178 2.4375 11.375 Z " fill="#865CF1" transform="translate(31,12)"/>
<path d="M0 0 C1.17046875 0.03609375 2.3409375 0.0721875 3.546875 0.109375 C4.43890625 0.15578125 5.3309375 0.2021875 6.25 0.25 C7.24 2.56 8.23 4.87 9.25 7.25 C10.24 4.94 11.23 2.63 12.25 0.25 C14.58333333 0.25 16.91666667 0.25 19.25 0.25 C20.920625 0.12625 20.920625 0.12625 22.625 0 C26.25 0.25 26.25 0.25 28.6875 1.9375 C30.25 4.25 30.25 4.25 30.25 9.25 C26.95 9.25 23.65 9.25 20.25 9.25 C20.58 9.91 20.91 10.57 21.25 11.25 C25.705 10.755 25.705 10.755 30.25 10.25 C29.125 12.6875 29.125 12.6875 27.25 15.25 C23.64380179 16.50432981 21.99036381 16.586529 18.5 15 C16.25 13.25 16.25 13.25 14.25 10.25 C13.59 11.9 12.93 13.55 12.25 15.25 C10.27 15.25 8.29 15.25 6.25 15.25 C5.26 12.61 4.27 9.97 3.25 7.25 C2.92 9.89 2.59 12.53 2.25 15.25 C-5.78280629 16.67462163 -5.78280629 16.67462163 -9.3125 15.125 C-11.20450766 12.65716392 -11.04790464 11.30352253 -10.75 8.25 C-10.75 6.93 -10.75 5.61 -10.75 4.25 C-7.68764275 -0.08581274 -5.1187357 -0.20474943 0 0 Z M1.25 1.25 C2.25 3.25 2.25 3.25 2.25 3.25 Z M-5.75 4.25 C-5.75 4.91 -5.75 5.57 -5.75 6.25 C-4.43 5.92 -3.11 5.59 -1.75 5.25 C-3.07 4.92 -4.39 4.59 -5.75 4.25 Z M21.25 4.25 C20.92 4.91 20.59 5.57 20.25 6.25 C21.9 6.25 23.55 6.25 25.25 6.25 C25.25 5.59 25.25 4.93 25.25 4.25 C23.93 4.25 22.61 4.25 21.25 4.25 Z M-4.75 9.25 C-5.41 9.91 -6.07 10.57 -6.75 11.25 C-5.43 11.58 -4.11 11.91 -2.75 12.25 C-2.42 11.26 -2.09 10.27 -1.75 9.25 C-2.74 9.25 -3.73 9.25 -4.75 9.25 Z " fill="#0E111B" transform="translate(164.75,24.75)"/>
<path d="M0 0 C1.65 0 3.3 0 5 0 C5.33 1.65 5.66 3.3 6 5 C7.423125 4.9071875 7.423125 4.9071875 8.875 4.8125 C9.90625 4.874375 10.9375 4.93625 12 5 C14.35119399 8.52679099 14.21443452 10.02879485 14.125 14.1875 C14.10695313 15.27417969 14.08890625 16.36085938 14.0703125 17.48046875 C14.04710938 18.31191406 14.02390625 19.14335938 14 20 C12.35 20 10.7 20 9 20 C8.505 15.05 8.505 15.05 8 10 C7.34 10 6.68 10 6 10 C5.67 13.3 5.34 16.6 5 20 C3.35 20 1.7 20 0 20 C-0.33 19.34 -0.66 18.68 -1 18 C-2.0828125 18.7734375 -2.0828125 18.7734375 -3.1875 19.5625 C-6.4195366 21.21442982 -7.61608307 21.06351675 -11 20 C-11 21.98 -11 23.96 -11 26 C-12.32 26 -13.64 26 -15 26 C-15 19.07 -15 12.14 -15 5 C-4.45673077 4.62788462 -4.45673077 4.62788462 -2.14453125 6.51171875 C-1.76683594 7.00285156 -1.38914062 7.49398438 -1 8 C-0.67 5.36 -0.34 2.72 0 0 Z M-9 9 C-9.66 9.66 -10.32 10.32 -11 11 C-10.67958603 13.60280568 -10.67958603 13.60280568 -10 16 C-8.35 15.67 -6.7 15.34 -5 15 C-5.33 13.35 -5.66 11.7 -6 10 C-6.99 9.67 -7.98 9.34 -9 9 Z " fill="#0F121C" transform="translate(103,20)"/>
<path d="M0 0 C1.65 0 3.3 0 5 0 C6.31626692 3.61973402 7 6.09567131 7 10 C7.66 10 8.32 10 9 10 C9.144375 8.72125 9.28875 7.4425 9.4375 6.125 C9.70642746 3.74307106 9.92226346 2.15547309 11 0 C12.65 0 14.3 0 16 0 C17.31626692 3.61973402 18 6.09567131 18 10 C18.66 10 19.32 10 20 10 C20.144375 8.72125 20.28875 7.4425 20.4375 6.125 C20.70642746 3.74307106 20.92226346 2.15547309 22 0 C23.65 0 25.3 0 27 0 C26.35587386 2.77124036 25.70977252 5.54199445 25.0625 8.3125 C24.88009766 9.09818359 24.69769531 9.88386719 24.50976562 10.69335938 C24.33251953 11.45068359 24.15527344 12.20800781 23.97265625 12.98828125 C23.81031494 13.68477783 23.64797363 14.38127441 23.48071289 15.09887695 C23.06234435 16.7534406 22.53968631 18.38094108 22 20 C20.35 20 18.7 20 17 20 C16.01 17.36 15.02 14.72 14 12 C13.71125 12.5775 13.4225 13.155 13.125 13.75 C12.08333333 15.83333333 11.04166667 17.91666667 10 20 C8.35 20 6.7 20 5 20 C3.35 13.4 1.7 6.8 0 0 Z " fill="#0F111B" transform="translate(129,20)"/>
<path d="M0 0 C6.08911505 -0.35818324 9.1633067 0.5685486 13.75 4.5 C16.60617912 7.92741494 16.29222982 11.76266759 16 16 C14.09334197 20.55479418 11.38773175 22.80613412 7 25 C3.96617875 25.31230513 1.03673805 25.24293904 -2 25 C-2 24.34 -2 23.68 -2 23 C-1.34 23 -0.68 23 0 23 C2.16183 18.53221799 3.10478878 13.95126965 3 9 C1.67570727 5.68194858 1.67570727 5.68194858 0 3 C0 2.01 0 1.02 0 0 Z " fill="#EC47BC" transform="translate(38,19)"/>
<path d="M0 0 C1.2065625 0.0309375 1.2065625 0.0309375 2.4375 0.0625 C3.22961929 1.95814426 4.02117576 3.85402371 4.8125 5.75 C5.25335938 6.80574219 5.69421875 7.86148437 6.1484375 8.94921875 C6.57382813 9.97660156 6.99921875 11.00398438 7.4375 12.0625 C7.82164063 12.95582031 8.20578125 13.84914063 8.6015625 14.76953125 C9.4375 17.0625 9.4375 17.0625 9.4375 20.0625 C7.7875 20.0625 6.1375 20.0625 4.4375 20.0625 C4.1075 18.7425 3.7775 17.4225 3.4375 16.0625 C1.1275 16.3925 -1.1825 16.7225 -3.5625 17.0625 C-3.8925 18.0525 -4.2225 19.0425 -4.5625 20.0625 C-6.2125 20.0625 -7.8625 20.0625 -9.5625 20.0625 C-8.84548649 15.79301048 -7.52679029 11.88186489 -6.0625 7.8125 C-5.6190625 6.56984375 -5.175625 5.3271875 -4.71875 4.046875 C-3.18090918 0.07758315 -3.18090918 0.07758315 0 0 Z M-0.5625 7.0625 C-0.8925 8.7125 -1.2225 10.3625 -1.5625 12.0625 C-0.5725 12.0625 0.4175 12.0625 1.4375 12.0625 C1.1075 10.4125 0.7775 8.7625 0.4375 7.0625 C0.1075 7.0625 -0.2225 7.0625 -0.5625 7.0625 Z " fill="#10121D" transform="translate(71.5625,19.9375)"/>
<path d="M0 0 C3.5625 0.375 3.5625 0.375 5.2734375 2.0390625 C6.87375217 4.93902665 6.8675121 6.83466106 6.75 10.125 C6.72292969 11.10984375 6.69585937 12.0946875 6.66796875 13.109375 C6.63316406 13.85703125 6.59835938 14.6046875 6.5625 15.375 C4.96023045 15.59745393 3.35553233 15.80246669 1.75 16 C0.85667969 16.11601563 -0.03664063 16.23203125 -0.95703125 16.3515625 C-3.4375 16.375 -3.4375 16.375 -6.4375 14.375 C-6.625 11.375 -6.625 11.375 -6.4375 8.375 C-6.4375 7.715 -6.4375 7.055 -6.4375 6.375 C-5.60969415 1.96003546 -4.72382392 0.51532625 0 0 Z M-1.4375 4.375 C-1.7675 5.035 -2.0975 5.695 -2.4375 6.375 C-1.1175 6.375 0.2025 6.375 1.5625 6.375 C1.5625 5.715 1.5625 5.055 1.5625 4.375 C0.5725 4.375 -0.4175 4.375 -1.4375 4.375 Z M-1.4375 9.375 C-1.7675 10.365 -2.0975 11.355 -2.4375 12.375 C-1.1175 12.375 0.2025 12.375 1.5625 12.375 C1.5625 11.385 1.5625 10.395 1.5625 9.375 C0.5725 9.375 -0.4175 9.375 -1.4375 9.375 Z " fill="#0F121B" transform="translate(124.4375,24.625)"/>
<path d="M0 0 C6.08911505 -0.35818324 9.1633067 0.5685486 13.75 4.5 C16.60617912 7.92741494 16.29222982 11.76266759 16 16 C14.09334197 20.55479418 11.38773175 22.80613412 7 25 C3.96617875 25.31230513 1.03673805 25.24293904 -2 25 C-2 24.34 -2 23.68 -2 23 C-1.34 23 -0.68 23 0 23 C2.16183 18.53221799 3.10478878 13.95126965 3 9 C1.67570727 5.68194858 1.67570727 5.68194858 0 3 C0 2.01 0 1.02 0 0 Z M4 2 C4 4.29169663 4.00713488 6.58347469 4.03515625 8.875 C4.04417969 9.90625 4.05320312 10.9375 4.0625 12 C4.07410156 13.03125 4.08570313 14.0625 4.09765625 15.125 C4.0131512 17.61282856 3.72264748 19.63290274 3 22 C5.19514873 22.9593157 5.19514873 22.9593157 8 23 C11.30471862 21.02987929 13.3592567 19.72752889 14.70703125 16.09375 C15.54487313 11.3060821 14.81436465 8.0759764 12 4 C9.02919589 1.89168741 7.80885177 2 4 2 Z " fill="#CE5DAF" transform="translate(38,19)"/>
<path d="M0 0 C1.32 0 2.64 0 4 0 C4 6.6 4 13.2 4 20 C2.68 20 1.36 20 0 20 C0 13.4 0 6.8 0 0 Z " fill="#11121C" transform="translate(82,20)"/>
<path d="M0 0 C0.33 0.99 0.66 1.98 1 3 C0.154375 3.495 -0.69125 3.99 -1.5625 4.5 C-4.35510173 6.85797846 -4.35510173 6.85797846 -4.4375 10.625 C-3.28104384 16.89110431 2.37685598 21.05378888 7 25 C7.66 25.33 8.32 25.66 9 26 C9 26.66 9 27.32 9 28 C5.14750011 26.41948722 2.71095984 23.94555446 -0.1875 21 C-1.06792969 20.113125 -1.94835937 19.22625 -2.85546875 18.3125 C-5.98394235 14.93899112 -6.38854033 12.66989385 -6.36328125 8.0390625 C-5.75965397 4.650961 -3.5844052 3.08013101 -1 1 C-0.67 0.67 -0.34 0.34 0 0 Z " fill="#7D63CE" transform="translate(13,21)"/>
<path d="M0 0 C0.33 0.66 0.66 1.32 1 2 C0.67 2.66 0.34 3.32 0 4 C0.09926746 6.11718773 0.09926746 6.11718773 0.4375 8.4375 C0.77310031 11.01609988 1 13.39165072 1 16 C0.34 14.68 -0.32 13.36 -1 12 C-1.66 12 -2.32 12 -3 12 C-3.33 11.01 -3.66 10.02 -4 9 C-4.66 8.34 -5.32 7.68 -6 7 C-4.77065985 3.31197956 -3.06140622 2.27643027 0 0 Z " fill="#8262E1" transform="translate(31,24)"/>
<path d="M0 0 C1.98 0.99 1.98 0.99 4 2 C4 2.99 4 3.98 4 5 C6.97 5.495 6.97 5.495 10 6 C7 8 7 8 4.4375 7.75 C2 7 2 7 0 5 C-0.125 2.375 -0.125 2.375 0 0 Z " fill="#0D0D17" transform="translate(154,33)"/>
<path d="M0 0 C0.33 0 0.66 0 1 0 C1.16918268 1.58306647 1.33523936 3.16646719 1.5 4.75 C1.5928125 5.63171875 1.685625 6.5134375 1.78125 7.421875 C2 10 2 10 2 14 C2.66 13.01 3.32 12.02 4 11 C4 12.98 4 14.96 4 17 C2.68 17 1.36 17 0 17 C0 11.39 0 5.78 0 0 Z " fill="#131620" transform="translate(88,29)"/>
</svg>
