<?xml version="1.0" encoding="UTF-8"?>
<svg version="1.1" xmlns="http://www.w3.org/2000/svg" width="206" height="58">
<path d="M0 0 C67.98 0 135.96 0 206 0 C206 19.14 206 38.28 206 58 C138.02 58 70.04 58 0 58 C0 38.86 0 19.72 0 0 Z " fill="#FDFDFD" transform="translate(0,0)"/>
<path d="M0 0 C2.66161208 2.06326518 4.83893832 4.425118 7 7 C6.566875 7.47308594 6.13375 7.94617188 5.6875 8.43359375 C1.94365169 12.87941362 0.12504518 16.06315515 0.53125 21.953125 C1.23909411 25.04404426 2.75669125 26.82267092 5 29 C5.66 29.66 6.32 30.32 7 31 C3.83870328 34.76665141 1.42670465 37.63683882 -3.4375 38.875 C-8.58900007 37.60971928 -11.33249822 34.70338732 -15 31 C-15.66902344 30.35546875 -16.33804687 29.7109375 -17.02734375 29.046875 C-22.71168559 23.51365063 -22.71168559 23.51365063 -23.5 19.375 C-22.73680257 14.22341733 -19.57846072 11.60620073 -16 8 C-15.35546875 7.3296875 -14.7109375 6.659375 -14.046875 5.96875 C-9.41250301 1.21754511 -7.03314128 -0.92237918 0 0 Z " fill="#885DF7" transform="translate(30,12)"/>
<path d="M0 0 C1.32 0 2.64 0 4 0 C5.19287411 3.87684087 6 6.91621923 6 11 C6.66 11 7.32 11 8 11 C8.144375 10.0925 8.28875 9.185 8.4375 8.25 C8.86409473 5.78523044 9.35074221 3.41152893 10 1 C11.65 1 13.3 1 15 1 C16.31626692 4.61973402 17 7.09567131 17 11 C17.66 11 18.32 11 19 11 C19.2165625 9.1128125 19.2165625 9.1128125 19.4375 7.1875 C19.73748686 4.57332877 20.15813297 2.52560108 21 0 C22.32 0 23.64 0 25 0 C23.82144268 6.70774643 22.52351686 13.36181939 21 20 C19.35 20 17.7 20 16 20 C15.01 16.37 14.02 12.74 13 9 C12.525625 10.258125 12.05125 11.51625 11.5625 12.8125 C11.29566406 13.52019531 11.02882812 14.22789063 10.75390625 14.95703125 C10.13774814 16.62672396 9.56280765 18.31157704 9 20 C7.35 20 5.7 20 4 20 C3.32749476 17.41806023 2.66182099 14.83467929 2 12.25 C1.71382812 11.15558594 1.71382812 11.15558594 1.421875 10.0390625 C0.53484036 6.55428354 0 3.61876278 0 0 Z " fill="#212530" transform="translate(130,20)"/>
<path d="M0 0 C8.968 -0.456 8.968 -0.456 13 3 C15.86810119 7.11094503 16.4751491 10.27567046 15.65234375 15.1015625 C14.35086848 18.88908934 11.49768921 21.25115539 8 23 C5.3276379 23.13415472 2.67749512 23.04318541 0 23 C0.309375 22.236875 0.61875 21.47375 0.9375 20.6875 C3.36189086 14.55521725 4.14339367 9.13466832 1.5 3 C1.005 2.01 0.51 1.02 0 0 Z " fill="#EE4DBE" transform="translate(38,20)"/>
<path d="M0 0 C10 0 10 0 12.625 1.5 C14.69868227 5.2703314 14.4761505 7.71464551 14 12 C12.875 14 12.875 14 11 15 C7.8125 15.1875 7.8125 15.1875 5 15 C4.67 16.65 4.34 18.3 4 20 C2.68 20 1.36 20 0 20 C0 13.4 0 6.8 0 0 Z " fill="#1C202C" transform="translate(88,25)"/>
<path d="M0 0 C3.86358168 4.61137168 5.33487186 7.66802218 5.30078125 13.79296875 C4.78130177 17.60473379 2.94751089 20.73096387 1 24 C-2.51104082 22.1021401 -5.18963824 20.62072351 -7 17 C-7.68313722 13.82873916 -7.7535009 11.16367159 -7 8 C-4.98829343 4.97243165 -2.64858589 2.47967098 0 0 Z " fill="#FDFBFE" transform="translate(37,19)"/>
<path d="M0 0 C1.65 0 3.3 0 5 0 C10.37129841 12.48519362 10.37129841 12.48519362 12 19 C10.35 19 8.7 19 7 19 C7 17.68 7 16.36 7 15 C4.03 15 1.06 15 -2 15 C-2.33 16.32 -2.66 17.64 -3 19 C-4.32 19 -5.64 19 -7 19 C-5.17778624 12.38757278 -2.94776396 6.19479329 0 0 Z " fill="#1B1F2B" transform="translate(69,21)"/>
<path d="M0 0 C1.32 0.33 2.64 0.66 4 1 C4.33 2.32 4.66 3.64 5 5 C6.1446875 4.87625 6.1446875 4.87625 7.3125 4.75 C10 5 10 5 11.65625 6.65625 C13.32431247 9.56566129 13.30638971 11.42108801 13.1875 14.75 C13.16042969 15.73484375 13.13335937 16.7196875 13.10546875 17.734375 C13.07066406 18.48203125 13.03585938 19.2296875 13 20 C11.68 20 10.36 20 9 20 C8.67 16.7 8.34 13.4 8 10 C7.01 10 6.02 10 5 10 C4.67 13.3 4.34 16.6 4 20 C2.68 20 1.36 20 0 20 C0 13.4 0 6.8 0 0 Z " fill="#2C313B" transform="translate(104,20)"/>
<path d="M0 0 C3.4375 1 3.4375 1 5.375 2.8125 C6.4375 5 6.4375 5 6.4375 9 C3.1375 9 -0.1625 9 -3.5625 9 C-3.5625 9.99 -3.5625 10.98 -3.5625 12 C-0.5925 11.34 2.3775 10.68 5.4375 10 C3.4375 14 3.4375 14 2.4375 15 C-3.68395749 15.4534413 -3.68395749 15.4534413 -6.5 14 C-8.22410604 10.75462393 -8.18663468 7.53203487 -7.5625 4 C-5.32424706 0.32926518 -4.31620847 0 0 0 Z " fill="#41454E" transform="translate(188.5625,25)"/>
<path d="M0 0 C2.9375 0.8125 2.9375 0.8125 4.9375 3.8125 C5.1328125 6.51171875 5.1328125 6.51171875 5.0625 9.5 C5.04445312 10.49386719 5.02640625 11.48773438 5.0078125 12.51171875 C4.97300781 13.65060547 4.97300781 13.65060547 4.9375 14.8125 C3.14656809 14.89336147 1.35460372 14.95162702 -0.4375 15 C-1.93410156 15.05220703 -1.93410156 15.05220703 -3.4609375 15.10546875 C-4.31945312 15.00878906 -5.17796875 14.91210938 -6.0625 14.8125 C-8.0625 11.8125 -8.0625 11.8125 -7.75 9.6875 C-7.0625 7.8125 -7.0625 7.8125 -6.0625 6.8125 C-3.72952567 6.77157063 -1.39544775 6.77008277 0.9375 6.8125 C0.6075 5.8225 0.2775 4.8325 -0.0625 3.8125 C-1.0525 3.8125 -2.0425 3.8125 -3.0625 3.8125 C-3.3925 4.4725 -3.7225 5.1325 -4.0625 5.8125 C-5.0525 5.8125 -6.0425 5.8125 -7.0625 5.8125 C-6.75 3.9375 -6.75 3.9375 -6.0625 1.8125 C-3.0625 -0.1875 -3.0625 -0.1875 0 0 Z " fill="#202530" transform="translate(162.0625,25.1875)"/>
<path d="M0 0 C2 2 2 2 2.1953125 4.8203125 C2.16050781 6.45613281 2.16050781 6.45613281 2.125 8.125 C2.10695312 9.22070312 2.08890625 10.31640625 2.0703125 11.4453125 C2.04710937 12.28835937 2.02390625 13.13140625 2 14 C0.37536158 14.05395478 -1.24978541 14.09277195 -2.875 14.125 C-3.77992187 14.14820313 -4.68484375 14.17140625 -5.6171875 14.1953125 C-8 14 -8 14 -10 12 C-9.44444444 7.44444444 -9.44444444 7.44444444 -8 6 C-5.66702567 5.95907063 -3.33294775 5.95758277 -1 6 C-1.33 5.01 -1.66 4.02 -2 3 C-2.99 3 -3.98 3 -5 3 C-5.33 3.66 -5.66 4.32 -6 5 C-7.32 5 -8.64 5 -10 5 C-7.81253336 -1.09365707 -6.30092018 -1.44396087 0 0 Z " fill="#1D212D" transform="translate(128,26)"/>
<path d="M0 0 C0.99 0 1.98 0 3 0 C2.37321829 3.66172475 1.35548154 6.8818995 -0.0625 10.3125 C-0.42472656 11.19550781 -0.78695312 12.07851563 -1.16015625 12.98828125 C-1.43730469 13.65214844 -1.71445313 14.31601562 -2 15 C-3.32 15 -4.64 15 -6 15 C-7.65 10.71 -9.3 6.42 -11 2 C-9.68 1.67 -8.36 1.34 -7 1 C-6.01 3.31 -5.02 5.62 -4 8 C-2.68 5.36 -1.36 2.72 0 0 Z " fill="#212530" transform="translate(178,25)"/>
<path d="M0 0 C1.32 0 2.64 0 4 0 C4 6.27 4 12.54 4 19 C2.68 19 1.36 19 0 19 C0 12.73 0 6.46 0 0 Z " fill="#1B202B" transform="translate(82,21)"/>
<path d="M0 0 C2.375 -0.1875 2.375 -0.1875 5 0 C7.28062828 3.42094242 7.21925007 4.68187222 7.125 8.6875 C7.10695313 9.68136719 7.08890625 10.67523438 7.0703125 11.69921875 C7.03550781 12.83810547 7.03550781 12.83810547 7 14 C5.68 14 4.36 14 3 14 C2.67 10.7 2.34 7.4 2 4 C1.01 3.67 0.02 3.34 -1 3 C-0.67 2.01 -0.34 1.02 0 0 Z " fill="#242833" transform="translate(110,26)"/>
<path d="M0 0 C1.67542976 0.28604898 3.34385343 0.61781233 5 1 C5 2.98 5 4.96 5 7 C3.125 7.625 3.125 7.625 1 8 C-1 6 -1 6 -1.1875 3.4375 C-1 1 -1 1 0 0 Z " fill="#F2F2F3" transform="translate(93,29)"/>
<path d="M0 0 C1.134375 0.020625 2.26875 0.04125 3.4375 0.0625 C0.4375 2.0625 0.4375 2.0625 -1.5625 2.0625 C-0.5647242 5.05582739 0.1897025 6.01016315 2.4375 8.0625 C-0.4375 8.25 -0.4375 8.25 -3.5625 8.0625 C-5.5625 5.0625 -5.5625 5.0625 -5.25 2.9375 C-4.0394383 -0.36403191 -3.85512717 0.06763381 0 0 Z " fill="#1F242F" transform="translate(159.5625,31.9375)"/>
<path d="M0 0 C1.4540625 0.0309375 1.4540625 0.0309375 2.9375 0.0625 C0.9575 1.0525 0.9575 1.0525 -1.0625 2.0625 C-1.0625 3.3825 -1.0625 4.7025 -1.0625 6.0625 C0.2575 6.3925 1.5775 6.7225 2.9375 7.0625 C2.9375 7.3925 2.9375 7.7225 2.9375 8.0625 C0.0625 8.1875 0.0625 8.1875 -3.0625 8.0625 C-3.7225 7.4025 -4.3825 6.7425 -5.0625 6.0625 C-4.33395709 0.0884481 -4.33395709 0.0884481 0 0 Z " fill="#191E29" transform="translate(123.0625,31.9375)"/>
<path d="M0 0 C2.875 -0.125 2.875 -0.125 6 0 C8 2 8 2 8.125 4.625 C8.08375 5.40875 8.0425 6.1925 8 7 C5.03 7 2.06 7 -1 7 C-1 6.67 -1 6.34 -1 6 C0.98 6 2.96 6 5 6 C4.34 5.01 3.68 4.02 3 3 C1.68 3 0.36 3 -1 3 C-0.67 2.01 -0.34 1.02 0 0 Z " fill="#141925" transform="translate(186,26)"/>
<path d="M0 0 C2.35953094 2.35953094 2.49141413 3.77895617 3 7 C1.35 7 -0.3 7 -2 7 C-1.125 1.125 -1.125 1.125 0 0 Z " fill="#CDCED0" transform="translate(71,26)"/>
<path d="M0 0 C1.65 0 3.3 0 5 0 C4.67 1.32 4.34 2.64 4 4 C2.68 3.67 1.36 3.34 0 3 C0 2.01 0 1.02 0 0 Z " fill="#E2E2E4" transform="translate(158,34)"/>
<path d="M0 0 C1.98 0.495 1.98 0.495 4 1 C4 1.99 4 2.98 4 4 C2.35 4 0.7 4 -1 4 C-0.67 2.68 -0.34 1.36 0 0 Z " fill="#C4C5C8" transform="translate(159,28)"/>
<path d="M0 0 C1.98 0.495 1.98 0.495 4 1 C4 1.99 4 2.98 4 4 C2.35 4 0.7 4 -1 4 C-0.67 2.68 -0.34 1.36 0 0 Z " fill="#BFC1C4" transform="translate(123,28)"/>
<path d="M0 0 C1.65 0 3.3 0 5 0 C4.34 1.32 3.68 2.64 3 4 C2.01 4 1.02 4 0 4 C0 2.68 0 1.36 0 0 Z " fill="#E2E2E4" transform="translate(122,34)"/>
<path d="M0 0 C0.268125 0.639375 0.53625 1.27875 0.8125 1.9375 C1.88667752 4.33131686 1.88667752 4.33131686 5 5 C3.02 5.66 1.04 6.32 -1 7 C-0.67 4.69 -0.34 2.38 0 0 Z " fill="#E1E2E3" transform="translate(153,27)"/>
</svg>
